<svg xmlns="http://www.w3.org/2000/svg" viewBox="0 0 544.34 344.26"><defs><style>.cls-1{fill:#bac8ca;}.cls-2{fill:#325761;}</style></defs><g id="圖層_2" data-name="圖層 2"><g id="圖層_4" data-name="圖層 4"><path class="cls-1" d="M5.44,302.16C-5.25,254.73-4.36,189,56.81,148.38c8.33-5.52,8.17-25.65,12.08-34.85C76.34,96,96.06,67,146.59,56.53a50.43,50.43,0,0,0,27.86-16.24C195.1,16.51,245-25.63,308.8,25.76a50.1,50.1,0,0,0,43.91,9.72c31.09-8,82.22-9.73,93.36,59.85a50.54,50.54,0,0,0,24.45,35.85c37.11,21.47,102.89,76.63,54.29,181.44a50.38,50.38,0,0,1-45.74,29H54.75A50.58,50.58,0,0,1,5.44,302.16Z"/><path class="cls-2" d="M5.2,302.22A203.05,203.05,0,0,1,0,256.33a144.22,144.22,0,0,1,7.35-45.51,121,121,0,0,1,9.48-21.1,117.48,117.48,0,0,1,13.42-18.85,126.65,126.65,0,0,1,16.78-16c3-2.4,6.15-4.68,9.36-6.83a11.85,11.85,0,0,0,3.66-4.1,27,27,0,0,0,2.21-5.21c2.33-7.28,2.93-15,5-22.54.28-.94.57-1.87,1-2.8s.76-1.78,1.18-2.66c.8-1.77,1.68-3.5,2.61-5.21a86.65,86.65,0,0,1,6.26-9.81A97.44,97.44,0,0,1,114,66.45c3.48-1.71,7-3.24,10.67-4.64s7.31-2.63,11-3.65c1.86-.57,3.75-1,5.62-1.5l5.65-1.3a50.07,50.07,0,0,0,10.67-3.68,49.35,49.35,0,0,0,9.55-6,44,44,0,0,0,4.18-3.78c1.34-1.31,2.53-2.77,3.84-4.23a140.76,140.76,0,0,1,16.86-16.07A109.8,109.8,0,0,1,211.68,9a86.42,86.42,0,0,1,22.14-7.58A77,77,0,0,1,257.24.53a85.71,85.71,0,0,1,22.65,6,113.5,113.5,0,0,1,20.52,11.17c3.22,2.19,6.34,4.53,9.39,6.94a49.78,49.78,0,0,0,9.46,6,48.54,48.54,0,0,0,21.66,4.85A46.86,46.86,0,0,0,352,34c3.75-1,7.58-1.81,11.42-2.45a100.2,100.2,0,0,1,23.41-1.36,66.77,66.77,0,0,1,22.94,5.49,56.06,56.06,0,0,1,19.05,14,70.89,70.89,0,0,1,12.27,20.16,112.91,112.91,0,0,1,6.4,22.57l.5,2.87c.19.91.33,1.82.54,2.73s.43,1.81.69,2.69.52,1.79.84,2.66a49.24,49.24,0,0,0,4.81,10,47.93,47.93,0,0,0,15.66,15.47c.76.49,1.6,1,2.45,1.47l2.51,1.5q2.49,1.51,4.94,3.11,4.89,3.2,9.57,6.7a149.56,149.56,0,0,1,32.8,33.21,121.05,121.05,0,0,1,11.63,20.41,115.68,115.68,0,0,1,7.31,22.37,127.38,127.38,0,0,1,.87,46.79,164.59,164.59,0,0,1-5.35,22.81,207,207,0,0,1-8.15,21.9c-.82,1.79-1.56,3.53-2.43,5.35a52.15,52.15,0,0,1-10.58,14.69A53.09,53.09,0,0,1,483.61,344c-1,.1-2,.14-3,.18l-1.51,0H448.73l-92.44-.1-92.44-.42L171.4,343,79,342.28l-23.11-.12A51,51,0,0,1,5.2,302.22Zm.49-.11a50.12,50.12,0,0,0,50.16,39.06L79,341l92.44-.71,92.45-.74,92.44-.42,92.44-.1h30.34l1.37,0c.91,0,1.83-.06,2.74-.15a47.38,47.38,0,0,0,10.73-2.15,48,48,0,0,0,18.67-11.19,47,47,0,0,0,6.92-8.48,43.06,43.06,0,0,0,2.69-4.78c.8-1.65,1.57-3.45,2.36-5.17a202,202,0,0,0,8.07-21.35,157.86,157.86,0,0,0,5.31-22.12,122.59,122.59,0,0,0-.6-45.11A110.72,110.72,0,0,0,530.42,197,116.49,116.49,0,0,0,519.3,177.3a145.13,145.13,0,0,0-31.73-32.45c-3-2.29-6.15-4.5-9.33-6.59-1.6-1-3.2-2.07-4.83-3.07L471,133.72c-.82-.48-1.64-1-2.5-1.51a51.79,51.79,0,0,1-16.86-16.78,53.15,53.15,0,0,1-5.13-10.8c-.34-.94-.59-1.91-.89-2.86s-.49-1.94-.74-2.9-.37-2-.56-2.94l-.49-2.83a109,109,0,0,0-6.09-21.84,67.42,67.42,0,0,0-11.56-19.2,52.35,52.35,0,0,0-17.82-13.24,63.16,63.16,0,0,0-21.76-5.28,96.57,96.57,0,0,0-22.63,1.22c-3.76.62-7.46,1.42-11.18,2.36A50.55,50.55,0,0,1,341,38.61a51.87,51.87,0,0,1-23-5.26,53.26,53.26,0,0,1-10-6.37c-3-2.39-6-4.68-9.16-6.84a111.67,111.67,0,0,0-19.95-11A82.89,82.89,0,0,0,256.91,3.3,74.11,74.11,0,0,0,234.32,4c-14.93,2.78-28.78,10.08-40.7,19.54A137.94,137.94,0,0,0,177,39.23c-1.27,1.39-2.53,2.91-3.94,4.3a48.35,48.35,0,0,1-4.42,3.92,51.44,51.44,0,0,1-10,6.21,51.85,51.85,0,0,1-11.16,3.77l-5.62,1.25c-1.85.48-3.72.89-5.55,1.44-3.7,1-7.32,2.23-10.92,3.52s-7.09,2.84-10.54,4.5c-13.74,6.64-26.16,16.23-35.32,28.49a84,84,0,0,0-6.25,9.6c-.93,1.67-1.81,3.36-2.62,5.1-.41.85-.79,1.74-1.17,2.6a27,27,0,0,0-.94,2.66c-2.09,7.32-2.78,15.1-5.21,22.51a28.58,28.58,0,0,1-2.35,5.39,12.71,12.71,0,0,1-4,4.41q-4.8,3.16-9.34,6.73a125.57,125.57,0,0,0-16.77,15.75,116.32,116.32,0,0,0-23,39.6A143.47,143.47,0,0,0,.51,256.34,202.12,202.12,0,0,0,5.69,302.11Z"/></g></g></svg>