<svg xmlns="http://www.w3.org/2000/svg" viewBox="0 0 544.34 485.74"><defs><style>.cls-1{fill:#fff;}.cls-2{fill:#609da0;}.cls-3{fill:#bac8ca;}.cls-4{fill:#325761;}</style></defs><g id="圖層_2" data-name="圖層 2"><g id="圖層_7" data-name="圖層 7"><path class="cls-1" d="M118.09,377.23c4.88-14.13,9.47-21.88,12.38-25.84a4.08,4.08,0,0,1,6.4-.38,66.12,66.12,0,0,1,14.84,26c5.86,20.73-5,37.86-18.08,37.86S111.07,397.54,118.09,377.23Z"/><path class="cls-2" d="M118,377.18a164.81,164.81,0,0,1,7.74-18.66q1.14-2.26,2.43-4.45c.44-.73.89-1.45,1.36-2.16.25-.36.44-.69.75-1.07a5,5,0,0,1,1-1,4.66,4.66,0,0,1,5.43.09,7.16,7.16,0,0,1,1,1l.86.93c.58.63,1.13,1.27,1.68,1.92a67.36,67.36,0,0,1,10.54,17.44,45.1,45.1,0,0,1,3.65,20.17c-.44,6.9-2.81,13.95-7.8,19.19a19.12,19.12,0,0,1-9.34,5.45,16.28,16.28,0,0,1-10.83-1.35,19.07,19.07,0,0,1-7.65-7.51,27.47,27.47,0,0,1-3.3-9.89,36.51,36.51,0,0,1,0-10.23,44,44,0,0,1,1-5A48.47,48.47,0,0,1,118,377.18Zm.28.1a39.41,39.41,0,0,0-2,9.82,33.87,33.87,0,0,0,.8,9.86,26.17,26.17,0,0,0,3.83,8.87,17.58,17.58,0,0,0,6.87,6.14,13.16,13.16,0,0,0,8.81,1,16.26,16.26,0,0,0,7.92-4.5,24.49,24.49,0,0,0,5.23-7.89,32.37,32.37,0,0,0,2.29-9.39,38.6,38.6,0,0,0-.42-9.77,49.72,49.72,0,0,0-2.66-9.5,65.71,65.71,0,0,0-9.88-17.21c-.52-.66-1-1.31-1.57-1.94a16.78,16.78,0,0,0-1.61-1.76,3.43,3.43,0,0,0-4-.21,6.15,6.15,0,0,0-1.58,1.69c-.49.67-1,1.35-1.43,2.05q-1.4,2.08-2.62,4.28-2.44,4.4-4.45,9C120.48,371,119.31,374.1,118.23,377.28Z"/><path class="cls-1" d="M216.49,430.4c3.25-13.75,6.3-21.29,8.24-25.14,1.06-2.12,3.05-2.29,4.26-.37a75,75,0,0,1,9.88,25.28c3.9,20.17-3.33,36.84-12,36.84S211.82,450.15,216.49,430.4Z"/><path class="cls-2" d="M216.34,430.36c.71-2.91,1.47-5.81,2.26-8.7s1.59-5.78,2.55-8.63a61.9,61.9,0,0,1,3.32-8.45,3.19,3.19,0,0,1,2.14-1.6,2.79,2.79,0,0,1,2.54,1,5.21,5.21,0,0,1,.41.52l.31.48.6,1q.6,1,1.17,1.95a76.72,76.72,0,0,1,7,16.75,72.29,72.29,0,0,1,1.93,8.9,59.4,59.4,0,0,1,.61,9.14,49.7,49.7,0,0,1-.95,9.16,33.7,33.7,0,0,1-3,8.85,20.24,20.24,0,0,1-2.73,4,12.08,12.08,0,0,1-4.06,3.08,9.23,9.23,0,0,1-2.62.71,8.43,8.43,0,0,1-2.74-.17,9.94,9.94,0,0,1-4.56-2.59,19.65,19.65,0,0,1-4.68-8.34,38,38,0,0,1-1.45-9.1A65.44,65.44,0,0,1,216.34,430.36Zm.29.07a48.36,48.36,0,0,0-.71,17.73,38,38,0,0,0,2.2,8.44,19,19,0,0,0,4.39,7,7.06,7.06,0,0,0,3.18,1.76,5.56,5.56,0,0,0,3.42-.39c2.24-1,4.1-3.21,5.44-5.64,2.76-4.94,3.92-10.84,4.18-16.66a56.1,56.1,0,0,0-.37-8.78,68.26,68.26,0,0,0-1.66-8.69,74.78,74.78,0,0,0-6.38-16.53c-.34-.65-.69-1.3-1.06-1.95l-.55-1-.28-.48c-.09-.12-.17-.27-.27-.38a1.57,1.57,0,0,0-1.38-.69,2.08,2.08,0,0,0-1.36,1,65.93,65.93,0,0,0-3.68,8.08A126.07,126.07,0,0,0,216.63,430.43Z"/><path class="cls-1" d="M346.92,369.57c3.17-14.13,6.16-21.88,8.05-25.84,1-2.18,3-2.35,4.17-.37a79.41,79.41,0,0,1,9.65,26c3.82,20.73-3.25,37.87-11.76,37.87S342.35,389.88,346.92,369.57Z"/><path class="cls-2" d="M346.77,369.54c.69-3,1.43-5.94,2.19-8.89s1.55-5.91,2.47-8.83a69.63,69.63,0,0,1,3.21-8.66,3.23,3.23,0,0,1,2.08-1.74,2.71,2.71,0,0,1,2.6,1.07,4.91,4.91,0,0,1,.4.53l.3.5.6,1q.58,1,1.14,2a81.18,81.18,0,0,1,6.78,17.17A67.22,67.22,0,0,1,371,382.06a52.35,52.35,0,0,1-.88,9.33,36.66,36.66,0,0,1-2.85,9.06,21.17,21.17,0,0,1-2.63,4.15,12.3,12.3,0,0,1-4,3.3,8.89,8.89,0,0,1-2.67.8,7.93,7.93,0,0,1-2.83-.18,9.84,9.84,0,0,1-4.55-2.8,20.82,20.82,0,0,1-4.5-8.62,41.49,41.49,0,0,1-1.34-9.27A71.31,71.31,0,0,1,346.77,369.54Zm.29.07a52.14,52.14,0,0,0-.69,18.08,40.51,40.51,0,0,0,2.12,8.65,20,20,0,0,0,4.26,7.28,6.83,6.83,0,0,0,3.15,1.9,5.47,5.47,0,0,0,1.71.09,6,6,0,0,0,1.7-.52c2.23-1.09,4-3.45,5.33-6,2.66-5.14,3.75-11.16,4-17.1a65.27,65.27,0,0,0-2-17.84,79.15,79.15,0,0,0-6.22-17c-.33-.68-.68-1.35-1-2l-.54-1-.28-.49c-.09-.13-.16-.28-.26-.4a1.49,1.49,0,0,0-1.36-.7,2.12,2.12,0,0,0-1.33,1.1A71.76,71.76,0,0,0,352,352,133.51,133.51,0,0,0,347.06,369.61Z"/><path class="cls-1" d="M433.93,446.59c4-14.14,7.75-21.89,10.13-25.84,1.31-2.18,3.76-2.36,5.25-.38a70.51,70.51,0,0,1,12.14,26c4.8,20.73-4.09,37.87-14.8,37.87S428.19,466.89,433.93,446.59Z"/><path class="cls-2" d="M433.78,446.54c.9-3.06,1.85-6.12,2.85-9.15s2.05-6.06,3.26-9c.6-1.49,1.23-3,1.92-4.42.34-.72.7-1.45,1.07-2.16a12,12,0,0,1,1.32-2.15,3.65,3.65,0,0,1,2.49-1.24,3.56,3.56,0,0,1,2.63,1,4.52,4.52,0,0,1,.48.5l.38.49.72,1c.49.64,1,1.3,1.41,2a71.4,71.4,0,0,1,8.57,17.33,63.07,63.07,0,0,1,2.4,9.44,49.86,49.86,0,0,1,.65,9.77,42.06,42.06,0,0,1-1.42,9.76,30,30,0,0,1-4.14,9.12,16.53,16.53,0,0,1-8.13,6.44,11.47,11.47,0,0,1-5.46.38,11.92,11.92,0,0,1-5-2.12,18.75,18.75,0,0,1-6.09-8.19,33,33,0,0,1-2.18-9.61A54,54,0,0,1,433.78,446.54Zm.29.09a47.66,47.66,0,0,0-1.53,9.39,43,43,0,0,0,.58,9.43,31.68,31.68,0,0,0,2.86,8.79,17.45,17.45,0,0,0,5.54,6.76,8.64,8.64,0,0,0,7.77,1.24A13.81,13.81,0,0,0,456,477a27.5,27.5,0,0,0,4-8.14,38.92,38.92,0,0,0,1.6-9.12,47,47,0,0,0-.4-9.33,60.82,60.82,0,0,0-2.1-9.17,70.15,70.15,0,0,0-8-17.11c-.42-.67-.85-1.33-1.3-2l-.68-1a6,6,0,0,0-.66-.86,2.34,2.34,0,0,0-1.68-.74,2.44,2.44,0,0,0-1.72.79,11.69,11.69,0,0,0-1.26,1.87q-.6,1-1.17,2.07c-.75,1.4-1.45,2.83-2.12,4.27-1.3,2.9-2.5,5.86-3.57,8.87S434.93,443.55,434.07,446.63Z"/><path class="cls-1" d="M282.77,384.54c1.87-8.51,3.64-13.17,4.76-15.55.61-1.32,1.76-1.42,2.46-.23a48.22,48.22,0,0,1,5.7,15.64c2.26,12.49-1.92,22.81-6.95,22.81S280.07,396.77,282.77,384.54Z"/><path class="cls-2" d="M282.62,384.51c.86-3.56,1.69-7.13,2.69-10.67a40.19,40.19,0,0,1,1.81-5.28,2.16,2.16,0,0,1,1.37-1.2,1.84,1.84,0,0,1,1.82.71,4.06,4.06,0,0,1,.26.36l.18.29.37.6c.24.4.47.8.69,1.21a49.39,49.39,0,0,1,4.12,10.37A41.63,41.63,0,0,1,297.5,392a32.21,32.21,0,0,1-.47,5.69,22.15,22.15,0,0,1-1.66,5.6l-.32.68-.39.66-.41.66-.48.63a7.91,7.91,0,0,1-2.56,2.2,5.75,5.75,0,0,1-1.81.53,4.54,4.54,0,0,1-1.94-.1,6.4,6.4,0,0,1-3-1.91,12.69,12.69,0,0,1-2.68-5.46,24.61,24.61,0,0,1-.62-5.69A49.23,49.23,0,0,1,282.62,384.51Zm.29.07a29.34,29.34,0,0,0-.14,10.81,24.88,24.88,0,0,0,1.4,5.08,11.82,11.82,0,0,0,2.47,4.14,3.36,3.36,0,0,0,1.59,1,1.71,1.71,0,0,0,.78,0,2.33,2.33,0,0,0,.81-.24,7.61,7.61,0,0,0,2.89-3.34,24.22,24.22,0,0,0,2.39-10A39.29,39.29,0,0,0,294,381.38a48,48,0,0,0-3.56-10.17c-.19-.41-.39-.81-.59-1.21l-.31-.6-.16-.3c-.05-.07-.08-.15-.13-.21-.2-.27-.39-.36-.55-.34a1,1,0,0,0-.64.55,41.73,41.73,0,0,0-2.19,4.94A67.11,67.11,0,0,0,282.91,384.58Z"/><path class="cls-1" d="M472.21,362.59c1.88-8.51,3.64-13.18,4.76-15.56.62-1.32,1.77-1.42,2.47-.23a48.44,48.44,0,0,1,5.7,15.65c2.25,12.48-1.92,22.8-6.95,22.8S469.52,374.81,472.21,362.59Z"/><path class="cls-2" d="M472.07,362.55c.86-3.56,1.69-7.13,2.68-10.67a41.72,41.72,0,0,1,1.81-5.28,2.19,2.19,0,0,1,1.37-1.2,1.84,1.84,0,0,1,1.83.72c.1.11.17.23.26.35l.18.3.36.59c.24.4.48.8.7,1.21a50.16,50.16,0,0,1,4.12,10.37,41.28,41.28,0,0,1,1.56,11.14,32.12,32.12,0,0,1-.46,5.69,22.44,22.44,0,0,1-1.66,5.6l-.32.68-.4.66-.4.66-.49.64a8.08,8.08,0,0,1-2.55,2.19,5.57,5.57,0,0,1-1.81.53,4.54,4.54,0,0,1-1.94-.1,6.41,6.41,0,0,1-3-1.91,12.66,12.66,0,0,1-2.67-5.46,24.61,24.61,0,0,1-.62-5.69A49.31,49.31,0,0,1,472.07,362.55Zm.29.07a29.13,29.13,0,0,0-.15,10.81,24.37,24.37,0,0,0,1.41,5.09,11.86,11.86,0,0,0,2.47,4.13,3.26,3.26,0,0,0,1.58,1,1.76,1.76,0,0,0,.79,0,2.49,2.49,0,0,0,.8-.23,7.57,7.57,0,0,0,2.89-3.35,23.88,23.88,0,0,0,2.39-10,38.89,38.89,0,0,0-1.06-10.61,47.15,47.15,0,0,0-3.56-10.16c-.18-.41-.38-.82-.59-1.22l-.31-.6-.16-.3a1.48,1.48,0,0,0-.13-.21c-.19-.27-.38-.36-.55-.34a1,1,0,0,0-.63.55,44.27,44.27,0,0,0-2.2,4.94A68.49,68.49,0,0,0,472.36,362.62Z"/><path class="cls-1" d="M68.82,451.9c2.52-8.51,4.88-13.18,6.37-15.56a1.92,1.92,0,0,1,3.3-.23,41.81,41.81,0,0,1,7.63,15.65c3,12.48-2.58,22.8-9.3,22.8S65.22,464.12,68.82,451.9Z"/><path class="cls-2" d="M68.68,451.85c1.17-3.71,2.36-7.4,3.81-11,.36-.9.75-1.8,1.17-2.69.21-.44.43-.89.67-1.32l.35-.65a3,3,0,0,1,.51-.7,2.46,2.46,0,0,1,3.45-.13,5.23,5.23,0,0,1,.58.62l.46.58c.31.39.61.78.9,1.18a42.75,42.75,0,0,1,5.52,10.49c.34.94.63,1.89.9,2.85s.45,2,.67,2.94a29,29,0,0,1,.43,6,23.71,23.71,0,0,1-.91,6.06,18.53,18.53,0,0,1-2.69,5.69,10.65,10.65,0,0,1-5.35,4,8,8,0,0,1-6.82-1.07,11.64,11.64,0,0,1-4-5.15,18.62,18.62,0,0,1-1.3-6,26.79,26.79,0,0,1,.31-5.95A39.69,39.69,0,0,1,68.68,451.85Zm.29.09a23.44,23.44,0,0,0-.33,11.37,17.32,17.32,0,0,0,2,5.13A10.33,10.33,0,0,0,74,472.16a5.12,5.12,0,0,0,4.31.59A7.8,7.8,0,0,0,82.15,470a18.21,18.21,0,0,0,3.56-10.06,28.19,28.19,0,0,0-.19-5.58c-.17-.92-.3-1.85-.52-2.77s-.46-1.83-.75-2.73a40.73,40.73,0,0,0-4.9-10.27c-.26-.4-.52-.8-.8-1.19l-.41-.59a3.82,3.82,0,0,0-.38-.48,1.25,1.25,0,0,0-1.79,0,5.39,5.39,0,0,0-.78,1.05c-.26.4-.51.81-.75,1.22-.48.83-.94,1.68-1.38,2.54A60.83,60.83,0,0,0,69,451.94Z"/><path class="cls-3" d="M5.44,302.16C-5.25,254.73-4.36,189,56.81,148.38c8.33-5.52,8.17-25.65,12.08-34.85C76.34,96,96.06,67,146.59,56.53a50.43,50.43,0,0,0,27.86-16.24C195.1,16.51,245-25.63,308.8,25.76a50.1,50.1,0,0,0,43.91,9.72c31.09-8,82.22-9.73,93.36,59.85a50.54,50.54,0,0,0,24.45,35.85c37.11,21.47,102.89,76.63,54.29,181.44a50.38,50.38,0,0,1-45.74,29H54.75A50.58,50.58,0,0,1,5.44,302.16Z"/><path class="cls-4" d="M5.2,302.22A203.05,203.05,0,0,1,0,256.33a144.22,144.22,0,0,1,7.35-45.51,121,121,0,0,1,9.48-21.1,117.48,117.48,0,0,1,13.42-18.85,126.65,126.65,0,0,1,16.78-16c3-2.4,6.15-4.68,9.36-6.83a11.85,11.85,0,0,0,3.66-4.1,27,27,0,0,0,2.21-5.21c2.33-7.28,2.93-15,5-22.54.28-.94.57-1.87,1-2.8s.76-1.78,1.18-2.66c.8-1.77,1.68-3.5,2.61-5.21a86.65,86.65,0,0,1,6.26-9.81A97.44,97.44,0,0,1,114,66.45c3.48-1.71,7-3.24,10.67-4.64s7.31-2.63,11-3.65c1.86-.57,3.75-1,5.62-1.5l5.65-1.3a50.07,50.07,0,0,0,10.67-3.68,49.35,49.35,0,0,0,9.55-6,44,44,0,0,0,4.18-3.78c1.34-1.31,2.53-2.77,3.84-4.23a140.76,140.76,0,0,1,16.86-16.07A109.8,109.8,0,0,1,211.68,9a86.42,86.42,0,0,1,22.14-7.58A77,77,0,0,1,257.24.53a85.71,85.71,0,0,1,22.65,6,113.5,113.5,0,0,1,20.52,11.17c3.22,2.19,6.34,4.53,9.39,6.94a49.78,49.78,0,0,0,9.46,6,48.54,48.54,0,0,0,21.66,4.85A46.86,46.86,0,0,0,352,34c3.75-1,7.58-1.81,11.42-2.45a100.2,100.2,0,0,1,23.41-1.36,66.77,66.77,0,0,1,22.94,5.49,56.06,56.06,0,0,1,19.05,14,70.89,70.89,0,0,1,12.27,20.16,112.91,112.91,0,0,1,6.4,22.57l.5,2.87c.19.91.33,1.82.54,2.73s.43,1.81.69,2.69.52,1.79.84,2.66a49.24,49.24,0,0,0,4.81,10,47.93,47.93,0,0,0,15.66,15.47c.76.49,1.6,1,2.45,1.47l2.51,1.5q2.49,1.51,4.94,3.11,4.89,3.2,9.57,6.7a149.56,149.56,0,0,1,32.8,33.21,121.05,121.05,0,0,1,11.63,20.41,115.68,115.68,0,0,1,7.31,22.37,127.38,127.38,0,0,1,.87,46.79,164.59,164.59,0,0,1-5.35,22.81,207,207,0,0,1-8.15,21.9c-.82,1.79-1.56,3.53-2.43,5.35a52.15,52.15,0,0,1-10.58,14.69A53.09,53.09,0,0,1,483.61,344c-1,.1-2,.14-3,.18l-1.51,0H448.73l-92.44-.1-92.44-.42L171.4,343,79,342.28l-23.11-.12A51,51,0,0,1,5.2,302.22Zm.49-.11a50.12,50.12,0,0,0,50.16,39.06L79,341l92.44-.71,92.45-.74,92.44-.42,92.44-.1h30.34l1.37,0c.91,0,1.83-.06,2.74-.15a47.38,47.38,0,0,0,10.73-2.15,48,48,0,0,0,18.67-11.19,47,47,0,0,0,6.92-8.48,43.06,43.06,0,0,0,2.69-4.78c.8-1.65,1.57-3.45,2.36-5.17a202,202,0,0,0,8.07-21.35,157.86,157.86,0,0,0,5.31-22.12,122.59,122.59,0,0,0-.6-45.11A110.72,110.72,0,0,0,530.42,197,116.49,116.49,0,0,0,519.3,177.3a145.13,145.13,0,0,0-31.73-32.45c-3-2.29-6.15-4.5-9.33-6.59-1.6-1-3.2-2.07-4.83-3.07L471,133.72c-.82-.48-1.64-1-2.5-1.51a51.79,51.79,0,0,1-16.86-16.78,53.15,53.15,0,0,1-5.13-10.8c-.34-.94-.59-1.91-.89-2.86s-.49-1.94-.74-2.9-.37-2-.56-2.94l-.49-2.83a109,109,0,0,0-6.09-21.84,67.42,67.42,0,0,0-11.56-19.2,52.35,52.35,0,0,0-17.82-13.24,63.16,63.16,0,0,0-21.76-5.28,96.57,96.57,0,0,0-22.63,1.22c-3.76.62-7.46,1.42-11.18,2.36A50.55,50.55,0,0,1,341,38.61a51.87,51.87,0,0,1-23-5.26,53.26,53.26,0,0,1-10-6.37c-3-2.39-6-4.68-9.16-6.84a111.67,111.67,0,0,0-19.95-11A82.89,82.89,0,0,0,256.91,3.3,74.11,74.11,0,0,0,234.32,4c-14.93,2.78-28.78,10.08-40.7,19.54A137.94,137.94,0,0,0,177,39.23c-1.27,1.39-2.53,2.91-3.94,4.3a48.35,48.35,0,0,1-4.42,3.92,51.44,51.44,0,0,1-10,6.21,51.85,51.85,0,0,1-11.16,3.77l-5.62,1.25c-1.85.48-3.72.89-5.55,1.44-3.7,1-7.32,2.23-10.92,3.52s-7.09,2.84-10.54,4.5c-13.74,6.64-26.16,16.23-35.32,28.49a84,84,0,0,0-6.25,9.6c-.93,1.67-1.81,3.36-2.62,5.1-.41.85-.79,1.74-1.17,2.6a27,27,0,0,0-.94,2.66c-2.09,7.32-2.78,15.1-5.21,22.51a28.58,28.58,0,0,1-2.35,5.39,12.71,12.71,0,0,1-4,4.41q-4.8,3.16-9.34,6.73a125.57,125.57,0,0,0-16.77,15.75,116.32,116.32,0,0,0-23,39.6A143.47,143.47,0,0,0,.51,256.34,202.12,202.12,0,0,0,5.69,302.11Z"/></g></g></svg>