<svg xmlns="http://www.w3.org/2000/svg" viewBox="0 0 503.61 474.77"><defs><style>.cls-1{fill:#fff;}.cls-2{fill:#609da0;}.cls-3{fill:#bac8ca;}.cls-4{fill:#325761;}</style></defs><g id="圖層_2" data-name="圖層 2"><g id="圖層_7" data-name="圖層 7"><path class="cls-1" d="M109.07,375.26c4.48-12.94,8.68-20,11.34-23.66a3.74,3.74,0,0,1,5.87-.35A60.48,60.48,0,0,1,139.86,375c5.37,19-4.58,34.68-16.55,34.68S102.65,393.85,109.07,375.26Z"/><path class="cls-2" d="M108.93,375.21a154.27,154.27,0,0,1,7.08-17.1c.69-1.38,1.43-2.75,2.22-4.08.4-.67.81-1.33,1.24-2,.23-.33.4-.64.68-1a4.29,4.29,0,0,1,6-.83,14.81,14.81,0,0,1,1.73,1.72c.52.58,1,1.17,1.54,1.76a61.83,61.83,0,0,1,9.67,16c.6,1.44,1.13,2.93,1.59,4.43.26.74.41,1.52.62,2.28s.41,1.53.54,2.31a41.4,41.4,0,0,1,.59,4.72c0,.79.14,1.58.1,2.38l-.07,2.39a34.19,34.19,0,0,1-2,9.38,25.09,25.09,0,0,1-5.16,8.25,17.62,17.62,0,0,1-8.6,5,11.51,11.51,0,0,1-2.54.35,10.52,10.52,0,0,1-2.57-.06,14.88,14.88,0,0,1-4.89-1.51,17.59,17.59,0,0,1-7-6.93,25.21,25.21,0,0,1-3-9.1A39.67,39.67,0,0,1,108.93,375.21Zm.29.1a32.72,32.72,0,0,0-1,18,23.92,23.92,0,0,0,3.52,8.08A16.18,16.18,0,0,0,118,407a12.07,12.07,0,0,0,3.92,1.13,13.84,13.84,0,0,0,4.06-.26,14.84,14.84,0,0,0,7.18-4.07A22.29,22.29,0,0,0,138,396.6,31.75,31.75,0,0,0,140,388l.12-2.22a20.93,20.93,0,0,0,0-2.24,35.47,35.47,0,0,0-.45-4.46c-.1-.74-.31-1.46-.46-2.2s-.29-1.47-.53-2.19c-.41-1.45-.87-2.89-1.42-4.3a59.9,59.9,0,0,0-9-15.74c-.47-.6-.94-1.2-1.43-1.78a14.82,14.82,0,0,0-1.46-1.61,3.08,3.08,0,0,0-3.61-.18,5.55,5.55,0,0,0-1.44,1.52c-.45.62-.89,1.24-1.31,1.88-.85,1.27-1.66,2.57-2.41,3.91q-2.23,4-4.08,8.27C111.28,369.5,110.2,372.39,109.22,375.31Z"/><path class="cls-1" d="M199.18,423.94c3-12.59,5.78-19.49,7.55-23,1-1.94,2.8-2.09,3.9-.33a68.47,68.47,0,0,1,9.05,23.14c3.57,18.47-3.05,33.74-11,33.74S194.91,442,199.18,423.94Z"/><path class="cls-2" d="M199,423.91c.65-2.67,1.34-5.32,2.06-8s1.46-5.3,2.33-7.91a57.82,57.82,0,0,1,3-7.76,3,3,0,0,1,2-1.49,2.64,2.64,0,0,1,2.38,1,4.21,4.21,0,0,1,.38.48l.28.44.56.88c.37.58.73,1.18,1.07,1.78a70.14,70.14,0,0,1,6.39,15.34,57.28,57.28,0,0,1,2.35,16.55,44.21,44.21,0,0,1-.87,8.41,30.68,30.68,0,0,1-2.75,8.14,19.08,19.08,0,0,1-2.52,3.68,11,11,0,0,1-3.76,2.86,8,8,0,0,1-5,.51,9.31,9.31,0,0,1-4.23-2.41,18.15,18.15,0,0,1-4.31-7.69,35,35,0,0,1-1.29-8.37A60.7,60.7,0,0,1,199,423.91Zm.29.07a43.67,43.67,0,0,0-.6,16.22,34.27,34.27,0,0,0,2.05,7.7,17.2,17.2,0,0,0,4,6.33,5.22,5.22,0,0,0,5.9,1.22,11.5,11.5,0,0,0,4.93-5.1c2.52-4.49,3.58-9.89,3.83-15.2a55.42,55.42,0,0,0-1.83-16,68.1,68.1,0,0,0-5.82-15.13c-.31-.6-.64-1.2-1-1.79l-.5-.88-.26-.44a4.15,4.15,0,0,0-.24-.34,1.39,1.39,0,0,0-1.21-.61,1.83,1.83,0,0,0-1.22.88,59.64,59.64,0,0,0-3.38,7.37A111.64,111.64,0,0,0,199.33,424Z"/><path class="cls-1" d="M318.62,368.24c2.91-12.94,5.65-20,7.38-23.66.95-2,2.73-2.15,3.81-.35a72.55,72.55,0,0,1,8.84,23.8c3.5,19-3,34.67-10.77,34.67S314.44,386.84,318.62,368.24Z"/><path class="cls-2" d="M318.48,368.21c.63-2.72,1.3-5.44,2-8.14s1.41-5.42,2.25-8.09a63.49,63.49,0,0,1,2.93-8,3,3,0,0,1,1.93-1.62,2.54,2.54,0,0,1,2.44,1c.14.16.24.34.36.5l.28.45.55.91c.36.61.71,1.22,1,1.84a74.07,74.07,0,0,1,6.23,15.73,62.11,62.11,0,0,1,2.31,16.85,48.35,48.35,0,0,1-.8,8.56,33.41,33.41,0,0,1-2.61,8.33A19.88,19.88,0,0,1,335,400.4a11.41,11.41,0,0,1-3.71,3.06,8.07,8.07,0,0,1-2.49.74,7.56,7.56,0,0,1-2.64-.16,9.14,9.14,0,0,1-4.23-2.61,19.06,19.06,0,0,1-4.12-7.94,37.25,37.25,0,0,1-1.2-8.53A66.13,66.13,0,0,1,318.48,368.21Zm.29.07a47,47,0,0,0-.58,16.54,37.15,37.15,0,0,0,2,7.9,18.32,18.32,0,0,0,3.89,6.61,6.16,6.16,0,0,0,2.83,1.7,4.85,4.85,0,0,0,1.52.08,5,5,0,0,0,1.51-.46,12,12,0,0,0,4.83-5.41,37.48,37.48,0,0,0,3.67-15.61,59.61,59.61,0,0,0-1.8-16.31,72.44,72.44,0,0,0-5.67-15.53c-.3-.62-.62-1.23-.94-1.84l-.5-.91-.25-.45a3.22,3.22,0,0,0-.24-.36,1.27,1.27,0,0,0-1.19-.62,1.88,1.88,0,0,0-1.19,1,67.27,67.27,0,0,0-3.3,7.6A120.63,120.63,0,0,0,318.77,368.28Z"/><path class="cls-1" d="M398.3,438.77c3.66-12.95,7.1-20,9.28-23.67a2.75,2.75,0,0,1,4.81-.34,64.55,64.55,0,0,1,11.12,23.79c4.39,19-3.75,34.68-13.56,34.68S393,457.36,398.3,438.77Z"/><path class="cls-2" d="M398.16,438.72q1.23-4.22,2.6-8.38c.9-2.79,1.87-5.55,3-8.27.54-1.37,1.12-2.72,1.75-4.06.31-.66.63-1.32,1-2a10,10,0,0,1,1.21-2,3.23,3.23,0,0,1,4.76-.21,4.89,4.89,0,0,1,.44.47l.35.44.67.89q.66.89,1.29,1.8a65.92,65.92,0,0,1,7.88,15.88,59.06,59.06,0,0,1,2.2,8.66,45.47,45.47,0,0,1,.61,9,37.89,37.89,0,0,1-1.31,9,27.46,27.46,0,0,1-3.78,8.4,15.35,15.35,0,0,1-7.51,6,10.57,10.57,0,0,1-5.06.36,11.13,11.13,0,0,1-4.62-2,17.34,17.34,0,0,1-5.59-7.56,30.07,30.07,0,0,1-2-8.84A50.1,50.1,0,0,1,398.16,438.72Zm.29.09a38.91,38.91,0,0,0-.82,17.22,28.86,28.86,0,0,0,2.65,8,16,16,0,0,0,5,6.13,7.9,7.9,0,0,0,7,1.1,12.4,12.4,0,0,0,6-4.71c3.24-4.4,4.77-10.1,5.11-15.74a43.43,43.43,0,0,0-.36-8.52,55.6,55.6,0,0,0-1.91-8.39,64.19,64.19,0,0,0-7.27-15.65c-.39-.62-.78-1.22-1.19-1.82l-.62-.89a5.44,5.44,0,0,0-.6-.78,2.08,2.08,0,0,0-1.5-.67,2.19,2.19,0,0,0-1.53.71,10.7,10.7,0,0,0-1.16,1.7c-.37.62-.72,1.25-1.07,1.89q-1,1.92-1.95,3.9c-1.2,2.66-2.3,5.37-3.28,8.12S399.23,436,398.45,438.81Z"/><path class="cls-1" d="M259.88,382c1.72-7.79,3.33-12.07,4.36-14.25.56-1.2,1.61-1.29,2.25-.21a44.11,44.11,0,0,1,5.22,14.33c2.07,11.44-1.76,20.88-6.36,20.88S257.41,393.15,259.88,382Z"/><path class="cls-2" d="M259.73,381.92c.79-3.26,1.55-6.53,2.45-9.78a36.44,36.44,0,0,1,1.64-4.85,2.06,2.06,0,0,1,1.28-1.13,1.78,1.78,0,0,1,1.73.67,3.43,3.43,0,0,1,.24.33l.17.27.33.55c.23.37.44.73.65,1.11a45.61,45.61,0,0,1,3.79,9.5,38.12,38.12,0,0,1,1.46,10.22,25.57,25.57,0,0,1-1.93,10.39l-.3.63-.36.62-.37.61-.45.58a7.61,7.61,0,0,1-2.38,2.05,5.32,5.32,0,0,1-3.53.41,6.16,6.16,0,0,1-2.79-1.79,11.44,11.44,0,0,1-2.47-5.06,24,24,0,0,1-.54-5.24A48.29,48.29,0,0,1,259.73,381.92Zm.29.06a26.8,26.8,0,0,0-.07,9.9,23.5,23.5,0,0,0,1.32,4.63,10.66,10.66,0,0,0,2.25,3.72,3.2,3.2,0,0,0,1.39.87,2.39,2.39,0,0,0,1.37-.2,6.88,6.88,0,0,0,2.59-3,21.88,21.88,0,0,0,2.2-9.13,35.72,35.72,0,0,0-.95-9.69,44,44,0,0,0-3.24-9.3q-.25-.56-.54-1.11l-.28-.55-.14-.27a1.22,1.22,0,0,0-.12-.19c-.17-.24-.32-.31-.45-.3a.93.93,0,0,0-.55.48,39.29,39.29,0,0,0-2,4.51A59.62,59.62,0,0,0,260,382Z"/><path class="cls-1" d="M433.36,361.84c1.72-7.79,3.34-12.06,4.36-14.24.56-1.21,1.62-1.3,2.26-.21a44.49,44.49,0,0,1,5.22,14.33c2.06,11.43-1.76,20.88-6.37,20.88S430.89,373,433.36,361.84Z"/><path class="cls-2" d="M433.22,361.81c.79-3.26,1.54-6.53,2.44-9.78a39,39,0,0,1,1.64-4.85,2.06,2.06,0,0,1,1.29-1.12,1.74,1.74,0,0,1,1.72.66,2.29,2.29,0,0,1,.24.33l.17.28.34.54c.22.37.43.74.64,1.11a44.94,44.94,0,0,1,3.79,9.51A37.66,37.66,0,0,1,447,368.7,25.45,25.45,0,0,1,445,379.1l-.3.63-.36.61L444,381l-.45.58a7.27,7.27,0,0,1-2.38,2.05,5.24,5.24,0,0,1-3.52.41,6.14,6.14,0,0,1-2.8-1.79,11.39,11.39,0,0,1-2.46-5.05,23.52,23.52,0,0,1-.55-5.24A48.3,48.3,0,0,1,433.22,361.81Zm.29.07a26.75,26.75,0,0,0-.08,9.89,24.2,24.2,0,0,0,1.32,4.63,10.58,10.58,0,0,0,2.26,3.72,3.06,3.06,0,0,0,1.39.87,2.29,2.29,0,0,0,1.36-.2,6.78,6.78,0,0,0,2.59-3,21.93,21.93,0,0,0,2.2-9.14,35.76,35.76,0,0,0-.95-9.69,43.44,43.44,0,0,0-3.23-9.3l-.54-1.11-.28-.55-.15-.27c0-.06-.07-.14-.11-.19-.17-.24-.32-.3-.45-.29a.85.85,0,0,0-.55.47,41.14,41.14,0,0,0-2,4.51A60.73,60.73,0,0,0,433.51,361.88Z"/><path class="cls-1" d="M64,443.63c2.3-7.79,4.46-12.07,5.83-14.25a1.76,1.76,0,0,1,3-.21,38.33,38.33,0,0,1,7,14.33c2.76,11.43-2.36,20.88-8.52,20.88S60.66,454.83,64,443.63Z"/><path class="cls-2" d="M63.82,443.59c1.07-3.4,2.16-6.79,3.47-10.12.33-.83.69-1.66,1.07-2.47.19-.41.39-.82.6-1.22l.33-.6a3,3,0,0,1,.47-.64,2.29,2.29,0,0,1,3.23-.13,4.36,4.36,0,0,1,.53.57l.43.53c.29.36.56.72.83,1.08a39.37,39.37,0,0,1,5.08,9.62,36.49,36.49,0,0,1,1.45,5.31,27.83,27.83,0,0,1,.41,5.55,21.73,21.73,0,0,1-.84,5.58,16.66,16.66,0,0,1-2.46,5.25,9.9,9.9,0,0,1-5,3.7,7.48,7.48,0,0,1-6.36-1,10.78,10.78,0,0,1-3.66-4.77,16.91,16.91,0,0,1-1.17-5.54,25.42,25.42,0,0,1,.32-5.46A37,37,0,0,1,63.82,443.59Zm.29.08a21.09,21.09,0,0,0-.25,10.4,15.89,15.89,0,0,0,1.82,4.67,9.27,9.27,0,0,0,3.06,3.34c2.39,1.53,5.4.52,7.32-2A16.45,16.45,0,0,0,79.32,451a24.8,24.8,0,0,0-.16-5.09,34.16,34.16,0,0,0-1.15-5,37.78,37.78,0,0,0-4.46-9.39c-.24-.37-.48-.73-.73-1.09a11.29,11.29,0,0,0-.71-1,1.09,1.09,0,0,0-1.57,0,5.08,5.08,0,0,0-.71,1c-.24.37-.47.74-.69,1.12-.45.75-.87,1.53-1.27,2.32A53.92,53.92,0,0,0,64.11,443.67Z"/><path class="cls-3" d="M5.05,302.17C-4.84,254.73-4,189,52.56,148.38c7.7-5.52,7.55-25.65,11.16-34.85C70.62,96,88.85,67,135.58,56.53a45.93,45.93,0,0,0,25.76-16.24c19.1-23.78,65.25-65.92,124.25-14.53C297,35.7,312,39.43,326.2,35.48c28.75-8,76-9.73,86.34,59.85,2.22,15,10.43,28.24,22.6,35.85,34.33,21.47,95.16,76.63,50.21,181.44-7.62,17.77-24.18,29.05-42.29,29.05H50.65C28.78,341.67,9.87,325.25,5.05,302.17Z"/><path class="cls-4" d="M4.81,302.22A220.46,220.46,0,0,1,0,258.47a158.9,158.9,0,0,1,5.59-43.61,123.29,123.29,0,0,1,19-39.59,118.93,118.93,0,0,1,14.63-16.52q4-3.78,8.36-7.21c1.44-1.15,2.91-2.25,4.4-3.34a11.11,11.11,0,0,0,3.4-4A38.49,38.49,0,0,0,58.77,134c.76-3.57,1.32-7.19,2-10.82a51.19,51.19,0,0,1,2.76-10.77A87.84,87.84,0,0,1,81.42,84.53,92.29,92.29,0,0,1,98.55,70.45,106.65,106.65,0,0,1,108.22,65c3.33-1.62,6.72-3.12,10.18-4.42s7-2.47,10.55-3.43c1.78-.52,3.58-1,5.37-1.39L137,55.1c.86-.25,1.73-.48,2.57-.79a44.59,44.59,0,0,0,18-11.41A54,54,0,0,0,161,38.82q1.74-2.16,3.56-4.25,3.66-4.18,7.64-8.07a110.83,110.83,0,0,1,17.34-13.91,82.06,82.06,0,0,1,20.16-9.54,66.77,66.77,0,0,1,22.16-3,71.08,71.08,0,0,1,21.93,4.41A94.72,94.72,0,0,1,273.64,14.7c3.1,2.06,6.08,4.28,9,6.61,1.45,1.14,2.85,2.39,4.26,3.55.69.55,1.37,1.14,2.08,1.67s1.43,1.06,2.16,1.55a42.73,42.73,0,0,0,19.78,7.17,40.53,40.53,0,0,0,10.55-.36,50,50,0,0,0,5.21-1.19c1.8-.49,3.6-.94,5.42-1.34A91.61,91.61,0,0,1,354.31,30a61,61,0,0,1,22.07,4.47A51.52,51.52,0,0,1,394.8,47.57a67.82,67.82,0,0,1,11.93,19.09,108.54,108.54,0,0,1,6.44,21.41c.75,3.64,1.19,7.4,1.95,10.79a52.37,52.37,0,0,0,3.36,10.06A47.91,47.91,0,0,0,431,125.74l1,.85,1,.79c.69.54,1.42,1,2.16,1.51s1.49,1,2.28,1.48l2.34,1.51c3.1,2.05,6.14,4.18,9.1,6.43A149.15,149.15,0,0,1,480.24,170a122.37,122.37,0,0,1,19.18,40.23,130.12,130.12,0,0,1,3.7,44.45,179.37,179.37,0,0,1-9.5,43.5c-.59,1.76-1.25,3.49-1.88,5.24l-2,5.19-2.13,5.14c-.76,1.76-1.62,3.49-2.55,5.17a51.23,51.23,0,0,1-15.44,17A47.29,47.29,0,0,1,448,344a49.18,49.18,0,0,1-5.77.28H425.74l-88.08-.1q-44-.15-88.07-.42L161.51,343l-88.08-.72-22-.13a44.36,44.36,0,0,1-21.36-5.25,48,48,0,0,1-16.49-14.53A52.89,52.89,0,0,1,4.81,302.22Zm.49-.11A52,52,0,0,0,14.08,322a47.26,47.26,0,0,0,16.33,14.23,43.24,43.24,0,0,0,21,4.94l22-.13,88.08-.72,88.08-.74q44-.31,88.07-.42l88.08-.09h16.52a44.52,44.52,0,0,0,5.21-.23,42.14,42.14,0,0,0,19.26-7.16,46.15,46.15,0,0,0,13.95-15.29c.85-1.52,1.64-3.08,2.34-4.68l2.1-5,2-5.08c.61-1.7,1.27-3.4,1.86-5.11a174.52,174.52,0,0,0,9.48-42.28,125.68,125.68,0,0,0-3.33-42.91,118.36,118.36,0,0,0-18.3-38.92,145,145,0,0,0-30.26-30.92c-2.88-2.2-5.84-4.3-8.85-6.31l-2.28-1.49c-.76-.48-1.53-1-2.34-1.52s-1.59-1.07-2.34-1.66l-1.14-.87-1.09-.93A51.76,51.76,0,0,1,415,110.48a55.62,55.62,0,0,1-3.55-10.81c-.23-.92-.39-1.85-.55-2.79s-.31-1.85-.45-2.74c-.26-1.79-.59-3.57-.93-5.35a104.83,104.83,0,0,0-6.12-20.72A64.63,64.63,0,0,0,392.2,49.93a48.07,48.07,0,0,0-17.15-12.27,57.36,57.36,0,0,0-20.83-4.3,88.82,88.82,0,0,0-21.46,2.16q-2.64.57-5.27,1.28A54.22,54.22,0,0,1,322,38a43.82,43.82,0,0,1-11.38.35,45.91,45.91,0,0,1-21.17-7.77c-.79-.53-1.54-1.11-2.3-1.67s-1.47-1.19-2.21-1.79c-1.42-1.18-2.75-2.38-4.18-3.51-2.81-2.29-5.72-4.47-8.72-6.49a91.88,91.88,0,0,0-19.17-10,68.16,68.16,0,0,0-21-4.33,64.5,64.5,0,0,0-21.28,2.8A80,80,0,0,0,191,14.75a111.67,111.67,0,0,0-17,13.53Q170,32,166.39,36.15q-1.81,2-3.54,4.15l-1.79,2.14c-.63.7-1.25,1.41-1.92,2.07a47,47,0,0,1-18.93,11.85c-.89.3-1.8.54-2.7.8l-2.71.65c-1.77.42-3.55.82-5.3,1.32-3.52.93-7,2.07-10.4,3.31s-6.76,2.7-10,4.27A101.75,101.75,0,0,0,99.53,72,91.3,91.3,0,0,0,82.59,85.66,87.11,87.11,0,0,0,69.5,103.05a85.49,85.49,0,0,0-4.79,9.81,50.5,50.5,0,0,0-2.79,10.49c-.67,3.6-1.26,7.23-2.07,10.83a40.12,40.12,0,0,1-3.57,10.54A12.44,12.44,0,0,1,52.56,149q-2.23,1.6-4.4,3.28c-2.88,2.26-5.67,4.62-8.35,7.11a118,118,0,0,0-14.63,16.32A120.51,120.51,0,0,0,6.07,215,158.65,158.65,0,0,0,.5,258.46,220.11,220.11,0,0,0,5.3,302.11Z"/></g></g></svg>