<svg xmlns="http://www.w3.org/2000/svg" viewBox="0 0 503.64 478.15"><defs><style>.cls-1{fill:#bac8ca;}.cls-2{fill:#325761;}.cls-3{fill:#fff;}.cls-4{fill:#9fa0a0;}</style></defs><g id="圖層_2" data-name="圖層 2"><g id="圖層_8" data-name="圖層 8"><path class="cls-1" d="M5.05,302.17C-4.84,254.73-4,189,52.56,148.38c7.7-5.52,7.56-25.65,11.17-34.85C70.62,96,88.86,67,135.59,56.53a45.93,45.93,0,0,0,25.76-16.24c19.1-23.78,65.25-65.92,124.26-14.53C297,35.7,312,39.43,326.22,35.49c28.75-8,76-9.74,86.35,59.84,2.22,15,10.43,28.24,22.6,35.85,34.33,21.47,95.16,76.63,50.21,181.44-7.62,17.77-24.18,29.05-42.3,29.05H50.66C28.78,341.67,9.87,325.25,5.05,302.17Z"/><path class="cls-2" d="M4.81,302.22A220.48,220.48,0,0,1,0,258.46a159,159,0,0,1,5.59-43.61,123.06,123.06,0,0,1,19-39.58,118.29,118.29,0,0,1,14.62-16.52c2.68-2.52,5.48-4.93,8.36-7.22q2.18-1.71,4.41-3.33a11.29,11.29,0,0,0,3.4-4,38.9,38.9,0,0,0,3.38-10.28c.76-3.57,1.32-7.19,2-10.81a51.06,51.06,0,0,1,2.77-10.77,86.51,86.51,0,0,1,4.77-10A89,89,0,0,1,81.43,84.53,91.9,91.9,0,0,1,98.56,70.45,104.3,104.3,0,0,1,108.23,65c3.33-1.62,6.72-3.12,10.18-4.42s7-2.47,10.56-3.43c1.77-.53,3.57-1,5.37-1.39l2.64-.66c.86-.24,1.72-.48,2.57-.78A44.73,44.73,0,0,0,157.5,42.9c1.26-1.3,2.38-2.64,3.54-4.08s2.35-2.86,3.57-4.25c2.43-2.79,5-5.49,7.63-8.07a111.83,111.83,0,0,1,17.34-13.92,82.27,82.27,0,0,1,20.17-9.53,66.77,66.77,0,0,1,22.16-3,71.08,71.08,0,0,1,21.93,4.41,94.28,94.28,0,0,1,19.82,10.26c3.1,2.05,6.08,4.27,9,6.6,1.45,1.14,2.85,2.39,4.26,3.55.69.56,1.37,1.14,2.08,1.67s1.43,1.06,2.16,1.55a42.77,42.77,0,0,0,19.78,7.17,40.16,40.16,0,0,0,10.56-.37,47.86,47.86,0,0,0,5.2-1.18q2.7-.73,5.42-1.34A91.75,91.75,0,0,1,354.34,30a60.84,60.84,0,0,1,22.06,4.48,51.31,51.31,0,0,1,18.43,13.07,67.86,67.86,0,0,1,11.93,19.08,108.4,108.4,0,0,1,6.43,21.42c.76,3.63,1.2,7.39,1.95,10.78a52.83,52.83,0,0,0,3.36,10.06,47.76,47.76,0,0,0,12.56,16.82l1,.85,1.05.79c.69.55,1.42,1,2.16,1.52s1.49,1,2.28,1.47l2.34,1.51c3.1,2.05,6.14,4.18,9.1,6.43A149.39,149.39,0,0,1,480.27,170a122.51,122.51,0,0,1,19.18,40.24,130.12,130.12,0,0,1,3.7,44.45,179.47,179.47,0,0,1-9.5,43.5c-.59,1.76-1.26,3.49-1.88,5.24l-2,5.19-2.13,5.14a56.41,56.41,0,0,1-2.56,5.17,51.11,51.11,0,0,1-15.44,17A47.17,47.17,0,0,1,448.05,344a49.25,49.25,0,0,1-5.78.28H425.76l-88.08-.1q-44-.15-88.08-.42L161.52,343l-88.08-.72-22-.13a44.36,44.36,0,0,1-21.37-5.25,48,48,0,0,1-16.49-14.53A52.89,52.89,0,0,1,4.81,302.22Zm.49-.1A52.22,52.22,0,0,0,14.08,322a47.16,47.16,0,0,0,16.33,14.23,43.27,43.27,0,0,0,21,4.94l22-.13,88.08-.72,88.08-.74q44-.31,88.08-.42l88.08-.09h16.51a44.6,44.6,0,0,0,5.22-.23,42.14,42.14,0,0,0,19.26-7.16,46.05,46.05,0,0,0,14-15.28q1.28-2.28,2.33-4.68l2.1-5,2-5.08c.61-1.7,1.27-3.4,1.85-5.11a174.54,174.54,0,0,0,9.49-42.28,125.68,125.68,0,0,0-3.33-42.91,118.36,118.36,0,0,0-18.3-38.92,145,145,0,0,0-30.26-30.93c-2.87-2.2-5.84-4.3-8.85-6.31l-2.28-1.49c-.76-.48-1.53-1-2.34-1.52s-1.59-1.06-2.34-1.66l-1.14-.87-1.09-.93A51.58,51.58,0,0,1,415,110.48a56.47,56.47,0,0,1-3.56-10.8c-.22-.92-.39-1.86-.54-2.79s-.31-1.86-.45-2.74c-.27-1.8-.59-3.58-.93-5.36a104.19,104.19,0,0,0-6.13-20.72,64.41,64.41,0,0,0-11.21-18.14,48,48,0,0,0-17.15-12.27,57.48,57.48,0,0,0-20.83-4.3,88.74,88.74,0,0,0-21.45,2.16q-2.66.57-5.28,1.28A53.06,53.06,0,0,1,322,38a43.8,43.8,0,0,1-11.38.35,45.91,45.91,0,0,1-21.17-7.77c-.78-.53-1.53-1.11-2.3-1.66s-1.47-1.2-2.21-1.79c-1.42-1.18-2.75-2.39-4.18-3.51-2.81-2.3-5.72-4.48-8.72-6.49a91.45,91.45,0,0,0-19.17-10,68.16,68.16,0,0,0-21-4.33,64.24,64.24,0,0,0-21.28,2.8A79.83,79.83,0,0,0,191,14.75a110.63,110.63,0,0,0-17,13.52q-3.94,3.78-7.56,7.87c-1.2,1.37-2.38,2.75-3.54,4.16s-2.39,2.88-3.7,4.21a47,47,0,0,1-18.94,11.84c-.88.31-1.8.55-2.7.8l-2.71.66c-1.77.41-3.54.82-5.3,1.32-3.52.93-7,2.07-10.4,3.31s-6.76,2.7-10,4.26A104.17,104.17,0,0,0,99.54,72,90.9,90.9,0,0,0,82.6,85.66a86.26,86.26,0,0,0-17.89,27.19,50.5,50.5,0,0,0-2.79,10.49c-.67,3.6-1.26,7.23-2.06,10.84a40.32,40.32,0,0,1-3.58,10.53A12.15,12.15,0,0,1,52.56,149c-1.48,1.07-3,2.16-4.39,3.29q-4.32,3.38-8.35,7.11A118,118,0,0,0,25.19,175.7,120.48,120.48,0,0,0,6.07,215,158.6,158.6,0,0,0,.5,258.46,220.3,220.3,0,0,0,5.3,302.12Z"/><circle class="cls-3" cx="144.8" cy="365.34" r="13.37"/><path class="cls-4" d="M131.28,365.34a14.77,14.77,0,0,1,3.85-9.68,13.61,13.61,0,0,1,4.34-3.19,14,14,0,0,1,5.33-1.25,14.29,14.29,0,0,1,10.15,4,14.49,14.49,0,0,1,4.42,10.15,14.51,14.51,0,0,1-8.85,13.79,14.4,14.4,0,0,1-5.72,1.08,13.78,13.78,0,0,1-5.59-1.37,14.29,14.29,0,0,1-4.43-3.48A15.26,15.26,0,0,1,131.28,365.34Zm.3,0a11.8,11.8,0,0,0,4.34,8.88,13.46,13.46,0,0,0,8.88,3,12.8,12.8,0,0,0,8.41-3.47,11.92,11.92,0,0,0,3.76-8.4,12.31,12.31,0,0,0-3.4-8.77,12.51,12.51,0,0,0-8.77-3.85,13.14,13.14,0,0,0-9.23,3.38A12.26,12.26,0,0,0,131.58,365.34Z"/><circle class="cls-3" cx="290.14" cy="417.83" r="13.37"/><path class="cls-4" d="M276.62,417.83a14.71,14.71,0,0,1,3.84-9.68,13.65,13.65,0,0,1,4.35-3.19,13.92,13.92,0,0,1,5.33-1.25,14.27,14.27,0,0,1,10.14,4,14.52,14.52,0,0,1,4.43,10.15,14.53,14.53,0,0,1-8.86,13.79,14.21,14.21,0,0,1-5.71,1.08,13.63,13.63,0,0,1-5.6-1.37,14.14,14.14,0,0,1-4.43-3.48A15.25,15.25,0,0,1,276.62,417.83Zm.3,0a11.76,11.76,0,0,0,4.33,8.88,13.36,13.36,0,0,0,8.89,3,12.74,12.74,0,0,0,8.4-3.47,12,12,0,0,0,3.77-8.4,12.32,12.32,0,0,0-3.41-8.77,12.51,12.51,0,0,0-8.76-3.85,13.17,13.17,0,0,0-9.24,3.39A12.22,12.22,0,0,0,276.92,417.83Z"/><circle class="cls-3" cx="203.05" cy="421.15" r="21.48"/><path class="cls-4" d="M181.42,421.15a22.81,22.81,0,0,1,6.22-15.41,21.86,21.86,0,0,1,7-4.95,21.93,21.93,0,0,1,24.31,4.48,22.6,22.6,0,0,1,6.8,15.88,22.64,22.64,0,0,1-13.86,21.29,22.41,22.41,0,0,1-8.82,1.69,21.65,21.65,0,0,1-8.69-2,22.33,22.33,0,0,1-7.06-5.23A23.35,23.35,0,0,1,181.42,421.15Zm.3,0a19.8,19.8,0,0,0,6.71,14.62,21.54,21.54,0,0,0,14.62,5.36,20.85,20.85,0,0,0,14.14-5.84,20,20,0,0,0,6.14-14.14,20.4,20.4,0,0,0-5.78-14.5,20.67,20.67,0,0,0-14.5-6.23,21.34,21.34,0,0,0-15,5.76,20.88,20.88,0,0,0-4.74,6.81A20.61,20.61,0,0,0,181.72,421.15Z"/><circle class="cls-3" cx="338.22" cy="365.34" r="19.8"/><path class="cls-4" d="M318.27,365.34A21.13,21.13,0,0,1,324,351.11a20,20,0,0,1,14.22-6.32,20.65,20.65,0,0,1,14.69,5.86,20.94,20.94,0,0,1,6.31,14.69,21.3,21.3,0,0,1-6,15,21,21,0,0,1-6.87,4.69,20.71,20.71,0,0,1-8.18,1.56,20.08,20.08,0,0,1-8.05-1.85,20.56,20.56,0,0,1-6.51-4.88A21.62,21.62,0,0,1,318.27,365.34Zm.3,0a18.22,18.22,0,0,0,6.22,13.43,19.78,19.78,0,0,0,13.43,4.86,19.12,19.12,0,0,0,12.95-5.35,18.35,18.35,0,0,0,5.65-12.94A18.76,18.76,0,0,0,351.53,352a19,19,0,0,0-13.31-5.74,19.59,19.59,0,0,0-13.77,5.27,19.24,19.24,0,0,0-4.38,6.26A18.81,18.81,0,0,0,318.57,365.34Z"/><circle class="cls-3" cx="371.55" cy="456.91" r="19.74"/><path class="cls-4" d="M351.66,456.91a21,21,0,0,1,5.71-14.18,19.91,19.91,0,0,1,14.18-6.31,20.61,20.61,0,0,1,14.65,5.84,20.9,20.9,0,0,1,6.3,14.65,20.88,20.88,0,0,1-12.79,19.68,20.79,20.79,0,0,1-8.16,1.56,20,20,0,0,1-8-1.85,20.42,20.42,0,0,1-6.49-4.86A21.59,21.59,0,0,1,351.66,456.91Zm.3,0a18.11,18.11,0,0,0,6.2,13.39,19.74,19.74,0,0,0,13.39,4.85,19.13,19.13,0,0,0,12.92-5.33,18.36,18.36,0,0,0,5.63-12.91,18.69,18.69,0,0,0-5.27-13.27,18.93,18.93,0,0,0-13.28-5.72,19.53,19.53,0,0,0-13.73,5.25,19.23,19.23,0,0,0-4.37,6.24A18.91,18.91,0,0,0,352,456.91Z"/><circle class="cls-3" cx="426.96" cy="410.67" r="17.42"/><path class="cls-4" d="M409.39,410.67a18.72,18.72,0,0,1,5-12.54,17.53,17.53,0,0,1,5.66-4.07A17.9,17.9,0,0,1,427,392.5a18.33,18.33,0,0,1,13,5.16,18.59,18.59,0,0,1,5.61,13,18.57,18.57,0,0,1-11.36,17.54A18.34,18.34,0,0,1,427,429.6a17.89,17.89,0,0,1-7.14-1.68,18.18,18.18,0,0,1-5.74-4.36A19.24,19.24,0,0,1,409.39,410.67Zm.3,0a15.84,15.84,0,0,0,5.52,11.75A17.46,17.46,0,0,0,427,426.6a16.85,16.85,0,0,0,11.28-4.66,16,16,0,0,0,4.95-11.27A16.37,16.37,0,0,0,438.6,399,16.59,16.59,0,0,0,427,394a17.22,17.22,0,0,0-12.09,4.57,16.84,16.84,0,0,0-3.87,5.49A16.49,16.49,0,0,0,409.69,410.67Z"/><circle class="cls-3" cx="89.58" cy="437.17" r="19.13"/><path class="cls-4" d="M70.3,437.17a20.48,20.48,0,0,1,5.53-13.76,19.37,19.37,0,0,1,13.75-6.13,20.13,20.13,0,0,1,20.34,19.89,20.64,20.64,0,0,1-5.76,14.57,20.43,20.43,0,0,1-6.66,4.54,19.94,19.94,0,0,1-7.92,1.52A19.32,19.32,0,0,1,81.79,456a19.79,19.79,0,0,1-6.3-4.73A21,21,0,0,1,70.3,437.17Zm.3,0a17.66,17.66,0,0,0,1.65,7.17,17.86,17.86,0,0,0,4.37,5.79,19.21,19.21,0,0,0,13,4.67,18.48,18.48,0,0,0,12.48-5.16,17.69,17.69,0,0,0,5.46-12.47,18.08,18.08,0,0,0-5.1-12.84,18.28,18.28,0,0,0-12.84-5.55,19,19,0,0,0-13.3,5.08,18.71,18.71,0,0,0-4.24,6A18.32,18.32,0,0,0,70.6,437.17Z"/></g></g></svg>