<svg xmlns="http://www.w3.org/2000/svg" viewBox="0 0 544.34 494.89"><defs><style>.cls-1{fill:#bac8ca;}.cls-2{fill:#325761;}.cls-3{fill:#fff;}.cls-4{fill:#9fa0a0;}</style></defs><g id="圖層_2" data-name="圖層 2"><g id="圖層_8" data-name="圖層 8"><path class="cls-1" d="M5.44,302.16C-5.25,254.73-4.36,189,56.81,148.38c8.33-5.52,8.17-25.65,12.08-34.85C76.34,96,96.06,67,146.59,56.53a50.43,50.43,0,0,0,27.86-16.24C195.1,16.51,245-25.63,308.8,25.76a50.1,50.1,0,0,0,43.91,9.72c31.09-8,82.22-9.73,93.36,59.85a50.54,50.54,0,0,0,24.45,35.85c37.11,21.47,102.89,76.63,54.29,181.44a50.38,50.38,0,0,1-45.74,29H54.75A50.58,50.58,0,0,1,5.44,302.16Z"/><path class="cls-2" d="M5.2,302.22A203.05,203.05,0,0,1,0,256.33a144.22,144.22,0,0,1,7.35-45.51,121,121,0,0,1,9.48-21.1,117.48,117.48,0,0,1,13.42-18.85,126.65,126.65,0,0,1,16.78-16c3-2.4,6.15-4.68,9.36-6.83a11.85,11.85,0,0,0,3.66-4.1,27,27,0,0,0,2.21-5.21c2.33-7.28,2.93-15,5-22.54.28-.94.57-1.87,1-2.8s.76-1.78,1.18-2.66c.8-1.77,1.68-3.5,2.61-5.21a86.65,86.65,0,0,1,6.26-9.81A97.44,97.44,0,0,1,114,66.45c3.48-1.71,7-3.24,10.67-4.64s7.31-2.63,11-3.65c1.86-.57,3.75-1,5.62-1.5l5.65-1.3a50.07,50.07,0,0,0,10.67-3.68,49.35,49.35,0,0,0,9.55-6,44,44,0,0,0,4.18-3.78c1.34-1.31,2.53-2.77,3.84-4.23a140.76,140.76,0,0,1,16.86-16.07A109.8,109.8,0,0,1,211.68,9a86.42,86.42,0,0,1,22.14-7.58A77,77,0,0,1,257.24.53a85.71,85.71,0,0,1,22.65,6,113.5,113.5,0,0,1,20.52,11.17c3.22,2.19,6.34,4.53,9.39,6.94a49.78,49.78,0,0,0,9.46,6,48.54,48.54,0,0,0,21.66,4.85A46.86,46.86,0,0,0,352,34c3.75-1,7.58-1.81,11.42-2.45a100.2,100.2,0,0,1,23.41-1.36,66.77,66.77,0,0,1,22.94,5.49,56.06,56.06,0,0,1,19.05,14,70.89,70.89,0,0,1,12.27,20.16,112.91,112.91,0,0,1,6.4,22.57l.5,2.87c.19.91.33,1.82.54,2.73s.43,1.81.69,2.69.52,1.79.84,2.66a49.24,49.24,0,0,0,4.81,10,47.93,47.93,0,0,0,15.66,15.47c.76.49,1.6,1,2.45,1.47l2.51,1.5q2.49,1.51,4.94,3.11,4.89,3.2,9.57,6.7a149.56,149.56,0,0,1,32.8,33.21,121.05,121.05,0,0,1,11.63,20.41,115.68,115.68,0,0,1,7.31,22.37,127.38,127.38,0,0,1,.87,46.79,164.59,164.59,0,0,1-5.35,22.81,207,207,0,0,1-8.15,21.9c-.82,1.79-1.56,3.53-2.43,5.35a52.15,52.15,0,0,1-10.58,14.69A53.09,53.09,0,0,1,483.61,344c-1,.1-2,.14-3,.18l-1.51,0H448.73l-92.44-.1-92.44-.42L171.4,343,79,342.28l-23.11-.12A51,51,0,0,1,5.2,302.22Zm.49-.11a50.12,50.12,0,0,0,50.16,39.06L79,341l92.44-.71,92.45-.74,92.44-.42,92.44-.1h30.34l1.37,0c.91,0,1.83-.06,2.74-.15a47.38,47.38,0,0,0,10.73-2.15,48,48,0,0,0,18.67-11.19,47,47,0,0,0,6.92-8.48,43.06,43.06,0,0,0,2.69-4.78c.8-1.65,1.57-3.45,2.36-5.17a202,202,0,0,0,8.07-21.35,157.86,157.86,0,0,0,5.31-22.12,122.59,122.59,0,0,0-.6-45.11A110.72,110.72,0,0,0,530.42,197,116.49,116.49,0,0,0,519.3,177.3a145.13,145.13,0,0,0-31.73-32.45c-3-2.29-6.15-4.5-9.33-6.59-1.6-1-3.2-2.07-4.83-3.07L471,133.72c-.82-.48-1.64-1-2.5-1.51a51.79,51.79,0,0,1-16.86-16.78,53.15,53.15,0,0,1-5.13-10.8c-.34-.94-.59-1.91-.89-2.86s-.49-1.94-.74-2.9-.37-2-.56-2.94l-.49-2.83a109,109,0,0,0-6.09-21.84,67.42,67.42,0,0,0-11.56-19.2,52.35,52.35,0,0,0-17.82-13.24,63.16,63.16,0,0,0-21.76-5.28,96.57,96.57,0,0,0-22.63,1.22c-3.76.62-7.46,1.42-11.18,2.36A50.55,50.55,0,0,1,341,38.61a51.87,51.87,0,0,1-23-5.26,53.26,53.26,0,0,1-10-6.37c-3-2.39-6-4.68-9.16-6.84a111.67,111.67,0,0,0-19.95-11A82.89,82.89,0,0,0,256.91,3.3,74.11,74.11,0,0,0,234.32,4c-14.93,2.78-28.78,10.08-40.7,19.54A137.94,137.94,0,0,0,177,39.23c-1.27,1.39-2.53,2.91-3.94,4.3a48.35,48.35,0,0,1-4.42,3.92,51.44,51.44,0,0,1-10,6.21,51.85,51.85,0,0,1-11.16,3.77l-5.62,1.25c-1.85.48-3.72.89-5.55,1.44-3.7,1-7.32,2.23-10.92,3.52s-7.09,2.84-10.54,4.5c-13.74,6.64-26.16,16.23-35.32,28.49a84,84,0,0,0-6.25,9.6c-.93,1.67-1.81,3.36-2.62,5.1-.41.85-.79,1.74-1.17,2.6a27,27,0,0,0-.94,2.66c-2.09,7.32-2.78,15.1-5.21,22.51a28.58,28.58,0,0,1-2.35,5.39,12.71,12.71,0,0,1-4,4.41q-4.8,3.16-9.34,6.73a125.57,125.57,0,0,0-16.77,15.75,116.32,116.32,0,0,0-23,39.6A143.47,143.47,0,0,0,.51,256.34,202.12,202.12,0,0,0,5.69,302.11Z"/><circle class="cls-3" cx="143.59" cy="370.63" r="14.74"/><path class="cls-4" d="M128.7,370.63A16.12,16.12,0,0,1,132.94,360a14.91,14.91,0,0,1,10.65-4.84,15.63,15.63,0,0,1,11.12,4.38,15.86,15.86,0,0,1,4.82,11.11,15.84,15.84,0,0,1-9.7,15.06,15.57,15.57,0,0,1-6.24,1.19,15.18,15.18,0,0,1-6.12-1.48,15.36,15.36,0,0,1-4.87-3.78A16.54,16.54,0,0,1,128.7,370.63Zm.3,0a13.14,13.14,0,0,0,4.73,9.86,14.77,14.77,0,0,0,9.86,3.39A14.14,14.14,0,0,0,153,380a13.3,13.3,0,0,0,4.16-9.38,13.7,13.7,0,0,0-3.8-9.74,14,14,0,0,0-9.74-4.25,14.49,14.49,0,0,0-10.2,3.79A13.55,13.55,0,0,0,129,370.63Z"/><circle class="cls-3" cx="303.86" cy="428.52" r="14.74"/><path class="cls-4" d="M289,428.52a16.1,16.1,0,0,1,4.24-10.65,15.09,15.09,0,0,1,4.79-3.49,15.5,15.5,0,0,1,5.86-1.36A15.67,15.67,0,0,1,315,417.4a15.91,15.91,0,0,1,4.82,11.12,15.88,15.88,0,0,1-9.7,15.06,15.56,15.56,0,0,1-6.24,1.18,15,15,0,0,1-6.12-1.47,15.36,15.36,0,0,1-4.87-3.78A16.54,16.54,0,0,1,289,428.52Zm.3,0a13.14,13.14,0,0,0,4.73,9.86,14.81,14.81,0,0,0,9.86,3.38,14.09,14.09,0,0,0,9.38-3.87,13.26,13.26,0,0,0,4.16-9.37,13.67,13.67,0,0,0-3.8-9.74,14,14,0,0,0-9.74-4.26,14.58,14.58,0,0,0-10.2,3.79A13.58,13.58,0,0,0,289.27,428.52Z"/><circle class="cls-3" cx="207.83" cy="432.18" r="23.69"/><path class="cls-4" d="M184,432.18a25,25,0,0,1,6.87-17,23.88,23.88,0,0,1,7.69-5.43,24.42,24.42,0,0,1,9.28-2,24.65,24.65,0,0,1,24.88,24.44,24.83,24.83,0,0,1-15.22,23.33,24.65,24.65,0,0,1-9.66,1.86,24,24,0,0,1-9.54-2.16,24.39,24.39,0,0,1-7.78-5.71A25.51,25.51,0,0,1,184,432.18Zm.3,0a22,22,0,0,0,7.36,16.18,23.72,23.72,0,0,0,16.18,6,23.11,23.11,0,0,0,15.7-6.49,22.19,22.19,0,0,0,6.78-15.7,22.66,22.66,0,0,0-6.42-16.06,22.91,22.91,0,0,0-16.06-6.88,23.07,23.07,0,0,0-21.75,13.93A22.86,22.86,0,0,0,184.29,432.18Z"/><circle class="cls-3" cx="356.89" cy="370.63" r="21.83"/><path class="cls-4" d="M334.91,370.63A23.09,23.09,0,0,1,341.23,355a22.13,22.13,0,0,1,7.09-5A22.32,22.32,0,0,1,373,354.5a23,23,0,0,1,6.9,16.13,23.42,23.42,0,0,1-6.54,16.49,23.17,23.17,0,0,1-7.54,5.12,22.74,22.74,0,0,1-8.95,1.72,22,22,0,0,1-8.83-2,22.68,22.68,0,0,1-7.18-5.31A23.66,23.66,0,0,1,334.91,370.63Zm.3,0A20.12,20.12,0,0,0,342,385.5,21.8,21.8,0,0,0,356.89,391,21.21,21.21,0,0,0,371.28,385a20.47,20.47,0,0,0,6.24-14.39,20.81,20.81,0,0,0-5.88-14.75,21.07,21.07,0,0,0-14.75-6.33,21.25,21.25,0,0,0-20,12.78A20.91,20.91,0,0,0,335.21,370.63Z"/><circle class="cls-3" cx="393.65" cy="471.62" r="21.77"/><path class="cls-4" d="M371.72,471.62A23.07,23.07,0,0,1,378,456a22.28,22.28,0,0,1,7.07-5,22.23,22.23,0,0,1,24.63,4.55,22.93,22.93,0,0,1,6.89,16.09,23.31,23.31,0,0,1-6.53,16.44,23,23,0,0,1-7.51,5.11,22.68,22.68,0,0,1-8.93,1.72,22.16,22.16,0,0,1-8.81-2,22.68,22.68,0,0,1-7.16-5.3A23.64,23.64,0,0,1,371.72,471.62Zm.3,0a20.33,20.33,0,0,0,1.86,8.18,20.07,20.07,0,0,0,4.94,6.64,21.81,21.81,0,0,0,14.83,5.45A21.13,21.13,0,0,0,408,486a20.34,20.34,0,0,0,6.23-14.34,20.81,20.81,0,0,0-20.57-21,21.14,21.14,0,0,0-20,12.75A20.79,20.79,0,0,0,372,471.62Z"/><circle class="cls-3" cx="454.75" cy="420.63" r="19.22"/><path class="cls-4" d="M435.38,420.63a20.57,20.57,0,0,1,5.56-13.82,19.51,19.51,0,0,1,6.24-4.45,19.89,19.89,0,0,1,7.57-1.7A20.13,20.13,0,0,1,469,406.35a20.35,20.35,0,0,1,6.14,14.28,20.38,20.38,0,0,1-12.47,19.19,20.09,20.09,0,0,1-7.95,1.52,19.51,19.51,0,0,1-7.83-1.81,20,20,0,0,1-6.32-4.75A21.06,21.06,0,0,1,435.38,420.63Zm.3,0a17.57,17.57,0,0,0,6.05,13,19.3,19.3,0,0,0,13,4.69,18.6,18.6,0,0,0,12.54-5.18,17.78,17.78,0,0,0,5.48-12.53,18.18,18.18,0,0,0-5.12-12.9,18.39,18.39,0,0,0-12.9-5.57,18.63,18.63,0,0,0-17.62,11.17A18.44,18.44,0,0,0,435.68,420.63Z"/><circle class="cls-3" cx="82.7" cy="449.84" r="21.1"/><path class="cls-4" d="M61.45,449.84a22.38,22.38,0,0,1,6.1-15.14,21.55,21.55,0,0,1,6.86-4.87,21.54,21.54,0,0,1,23.89,4.4A22.23,22.23,0,0,1,105,449.84a22.24,22.24,0,0,1-13.62,20.94,22.08,22.08,0,0,1-8.67,1.66,21.5,21.5,0,0,1-8.56-1.95,22,22,0,0,1-6.93-5.16A22.9,22.9,0,0,1,61.45,449.84Zm.3,0a19.46,19.46,0,0,0,6.59,14.35,21.13,21.13,0,0,0,14.36,5.25,20.45,20.45,0,0,0,13.87-5.73,19.64,19.64,0,0,0,6-13.87,20,20,0,0,0-5.66-14.23,20.3,20.3,0,0,0-14.23-6.12A20.92,20.92,0,0,0,68,435.15a20.68,20.68,0,0,0-4.66,6.68A20,20,0,0,0,61.75,449.84Z"/></g></g></svg>